<?xml version="1.0" encoding="UTF-8"?>
<!DOCTYPE svg PUBLIC "-//W3C//DTD SVG 1.1//EN" "http://www.w3.org/Graphics/SVG/1.1/DTD/svg11.dtd">
<!-- Creator: CorelDRAW (OEM Version) -->
<svg xmlns="http://www.w3.org/2000/svg" xml:space="preserve" width="2.7808mm" height="1.7114mm" version="1.1" style="shape-rendering:geometricPrecision; text-rendering:geometricPrecision; image-rendering:optimizeQuality; fill-rule:evenodd; clip-rule:evenodd"
viewBox="0 0 5.56 3.42"
 xmlns:xlink="http://www.w3.org/1999/xlink"
 xmlns:xodm="http://www.corel.com/coreldraw/odm/2003">
 <defs>
  <style type="text/css">
   <![CDATA[
    .fil0 {fill:#2B2A29}
    .fil1 {fill:#5FB643}
    .fil2 {fill:#FEFEFE}
   ]]>
  </style>
 </defs>
 <g id="Layer_x0020_1">
  <metadata id="CorelCorpID_0Corel-Layer"/>
  <g id="_2294365174432">
   <g>
    <path class="fil0" d="M2.01 1.5c-0.01,0.08 -0.09,0.29 -0.14,0.35 -0.02,0.03 -0.03,0.05 -0.05,0.08 -0.05,0.07 -0.12,0.19 -0.2,0.23 -0.02,-0.01 -0.01,-0 -0.03,-0.01 -0.05,-0.01 -0.04,-0.05 -0.03,-0.08 0.01,-0.04 0.03,-0.08 0.05,-0.11 0.01,-0.02 0.02,-0.04 0.03,-0.05 0.01,-0.02 0.02,-0.04 0.03,-0.05 0.01,-0.02 0.02,-0.04 0.03,-0.05 0.02,-0.04 0.04,-0.06 0.06,-0.1l0.06 -0.1c0.01,-0.02 0.02,-0.03 0.03,-0.05 0.02,-0.03 0.04,-0.07 0.08,-0.1 0.05,-0.03 0.09,0.01 0.09,0.06zm0.19 0.41c-0.05,0.03 -0.11,-0.01 -0.07,-0.09l0.13 -0.28 0.02 -0.08c0,-0.02 0,-0.03 -0,-0.04 -0.01,-0.02 -0.02,-0.03 -0.01,-0.05 -0.02,-0.02 -0.01,-0 -0.04,-0.04 -0.03,-0.03 -0.09,-0.07 -0.13,-0.09 -0.06,-0.03 -0.12,-0.05 -0.2,-0.04 -0.09,0.01 -0.15,0.04 -0.21,0.1 -0.05,0.05 -0.09,0.1 -0.13,0.16l-0.11 0.17c-0.04,0.08 -0.14,0.28 -0.16,0.37 -0.03,0.1 0.02,0.15 0.08,0.21 0.04,0.05 0.05,0.05 0.12,0.08 0.08,0.03 0.24,0.04 0.32,-0.03 0.02,-0.02 0.03,-0.04 0.05,-0.06 0.04,-0.05 0.02,-0.09 0.09,-0.05 0.04,0.03 0.11,0.03 0.16,0.02 0.1,-0.02 0.15,-0.08 0.22,-0.13 0.03,-0.02 0.06,-0.05 0.08,-0.08 0.02,-0.03 0.05,-0.06 0.07,-0.08 0.03,-0.04 0.08,-0.09 0.1,-0.13 0.04,-0.06 0.05,-0.04 0.08,-0.01 0.02,0.01 0.02,0.02 0.04,0.03 0.08,0.06 0.22,0.03 0.3,-0.02 0.02,-0.02 0.05,-0.05 0.07,-0.07 0.02,-0.03 0.04,-0.05 0.06,-0.07 0.02,-0.02 0.04,-0.05 0.06,-0.07 0.02,-0.02 0.04,-0.06 0.06,-0.07 0.02,0.01 0.05,0.03 0.06,0.06 0.05,0 0.2,0.14 0.48,-0.06 0.05,-0.04 0.06,-0.06 0.1,-0.1 0.01,-0.01 -0,-0 0.02,-0.01 0.03,-0.09 0.11,0.01 0.19,0 0.1,-0.01 0.12,-0.08 0.15,-0.1 0.01,0.03 -0.02,0.09 -0.03,0.14 0,0.02 -0.02,0.08 -0.02,0.1 -0.01,0.05 -0.04,0.04 -0.1,0.06 -0.09,0.03 -0.17,0.06 -0.26,0.08l-0.26 0.09c-0.15,0.06 -0.41,0.15 -0.54,0.22l-0.26 0.12c-0.11,0.05 -0.26,0.12 -0.38,0.18l-0.25 0.12c-0.04,0.02 -0.08,0.04 -0.12,0.06 -0.2,0.1 -0.48,0.27 -0.68,0.39 -0.17,0.1 -0.45,0.29 -0.63,0.41 -0.03,0.02 -0.18,0.12 -0.18,0.15 0.01,0.02 0.03,0.02 0.05,0.02 0.05,0.01 0.03,0.01 0.1,0.01 0.12,0.01 0.21,-0.05 0.32,-0.12l0.09 -0.06c0.02,-0.01 0.03,-0.02 0.05,-0.03l0.46 -0.28c0.07,-0.04 0.14,-0.09 0.21,-0.12 0.05,-0.02 0.14,-0.08 0.2,-0.12l0.33 -0.18c0.05,-0.03 0.27,-0.14 0.33,-0.17 0.22,-0.12 0.49,-0.22 0.72,-0.32 0.07,-0.03 0.18,-0.08 0.25,-0.1 0.04,-0.01 0.08,-0.03 0.12,-0.04l0.18 -0.07c0.03,-0.01 0.04,-0.01 0.06,-0.02 0.04,-0.01 0.09,-0.04 0.12,-0.03 -0,0.02 -0.01,0.02 -0.01,0.04 -0.01,0.03 -0,0.03 -0,0.04 -0.01,0.06 -0.04,0.3 -0.03,0.33 0.02,0 0.02,0 0.04,0 0.01,0.01 -0,0.01 0.05,0 0.02,-0 0.04,-0.01 0.05,-0.01 0.03,-0 0.09,-0.03 0.12,-0.04l0.04 -0.18c0.01,-0.06 0.03,-0.12 0.04,-0.19 0.02,-0.1 0.06,-0.09 0.16,-0.11 0.01,-0 0.04,-0.01 0.05,-0.01 0.23,-0.06 0.47,-0.09 0.71,-0.11 0.05,-0 0.18,0.01 0.19,-0.05 0.01,-0.02 0.02,-0.08 0.01,-0.1 -0.02,-0.08 -0.09,-0.05 -0.2,-0.05 -0.18,0 -0.56,0.06 -0.74,0.11 -0.02,-0.01 -0.04,0.01 -0.07,0.01 -0.01,-0.03 0,-0.05 0.01,-0.08 0.03,-0.08 0.04,-0.12 0.07,-0.21 0.02,-0.05 0.03,-0.09 0.06,-0.14 0.02,-0.04 0.04,-0.09 0.06,-0.14 0.04,-0.09 0.08,-0.18 0.12,-0.27l0.08 -0.17c0.01,-0.01 0.01,-0.02 0.02,-0.04l0.02 -0.05c0.01,-0.02 0,-0 0.01,-0.02 0,-0.04 0.01,-0.07 -0.12,-0.05 -0.05,0.01 -0.15,0.01 -0.18,0.06 -0.01,0.02 -0.08,0.17 -0.1,0.21l-0.1 0.21c-0.02,0.04 -0.05,0.1 -0.08,0.14 -0.04,0.06 -0.15,0.22 -0.23,0.24 -0.01,0 -0.02,0 -0.04,0 -0.03,-0.04 -0.01,-0.07 -0.01,-0.1 0,-0.05 0.03,-0.12 0.05,-0.18l0.01 -0.02c0.03,-0.06 0.03,-0.09 0.06,-0.15 0.01,-0.03 0.02,-0.06 0.03,-0.09l0.06 -0.15c0,-0.01 0,-0.01 0,-0.03 0.02,-0.07 -0.09,-0.04 -0.15,-0.03 -0.14,0.02 -0.13,0.05 -0.15,0.11 -0.01,0.03 -0.02,0.06 -0.03,0.08 -0.05,0.14 -0.11,0.31 -0.17,0.45l-0.05 0.12c-0.02,0.04 -0.06,0.12 -0.09,0.15 -0.06,0.07 -0.15,0.08 -0.17,0.04 -0.05,-0.01 -0.06,-0.06 -0.05,-0.12 0.01,-0.02 0,-0.03 0.01,-0.05 0.03,-0.12 0.07,-0.2 0.09,-0.29 0.02,-0.06 0.06,-0.16 0.07,-0.21 0.02,-0.07 0.12,-0.26 0.15,-0.32l0.15 -0.27c0,-0.01 0.01,-0.01 0.01,-0.02l0.01 -0.02c0,-0.02 0.01,-0.02 0,-0.04 -0.07,-0.02 -0.19,-0.02 -0.27,0.02 -0.04,0.02 -0.11,0.17 -0.14,0.22 -0.02,0.03 -0.04,0.07 -0.06,0.11 -0.01,0.02 -0.02,0.03 -0.03,0.05l-0.05 0.11c-0.07,0.13 -0.17,0.37 -0.23,0.51l-0.15 0.31c-0.03,0.07 -0.09,0.21 -0.19,0.22 -0.01,-0 -0,-0 -0.01,-0.01 -0.03,-0.01 -0.05,-0.02 -0.05,-0.07 0,-0.01 0,-0 0,-0.01 0.01,-0.06 0.06,-0.21 0.07,-0.25l0.04 -0.13c0,-0.01 0.01,-0.01 0.01,-0.02l0.11 -0.28 0.28 -0.58c-0.01,-0.03 0.01,-0.04 -0.04,-0.05 -0.05,-0.01 -0.17,-0 -0.23,0.02 -0.04,0.02 -0.07,0.08 -0.09,0.11l-0.26 0.59c-0.03,0.05 -0.08,0.2 -0.09,0.22l-0.26 0.56c-0.02,0.04 -0.05,0.08 -0.07,0.12 -0.01,0.02 -0.03,0.04 -0.04,0.06 -0.02,0.02 -0.04,0.04 -0.05,0.05z"/>
    <path class="fil0" d="M0.05 1.35c0.01,0.01 0.01,0.01 0.02,0.02 0.01,0 0.02,0.01 0.02,0.01 0.04,0.02 0.11,0.05 0.15,0.05 0.04,-0 0.08,-0.04 0.1,-0.06l0.22 -0.13c0.12,-0.07 0.24,-0.14 0.38,-0.18 0.02,0.03 -0.02,0.05 -0.01,0.09 -0,0.03 -0.01,0.06 -0.02,0.1l-0.1 0.38c-0.01,0.03 -0.02,0.06 -0.02,0.1 -0.01,0.07 -0.05,0.21 -0.07,0.29 -0.03,0.15 -0.05,0.22 -0.08,0.39l-0.03 0.2c-0.01,0.04 -0.02,0.06 0.01,0.11l0.03 0.01c0.04,-0.01 0.27,-0.1 0.28,-0.11 0.01,-0.01 0.01,-0.12 0.01,-0.15 0,-0.03 0.01,-0.05 0.01,-0.07 0.01,-0.03 0.01,-0.05 0.01,-0.08l0.02 -0.11c0.01,-0.03 -0,-0.03 0.01,-0.08 0,-0.01 0.01,-0.03 0.01,-0.04l0.1 -0.47c0.03,-0.1 0.05,-0.19 0.08,-0.29 0,-0.02 0,-0.02 0.01,-0.04l0.1 -0.36c0.01,-0.04 0.02,-0.04 0.06,-0.06 0.21,-0.08 0.36,-0.12 0.56,-0.19 0.05,-0.02 0.17,-0.05 0.17,-0.07 0.01,-0.02 -0.02,-0.07 -0.03,-0.09 -0.03,-0.02 -0.01,-0.01 -0.04,-0.04 -0.05,-0.05 -0.07,-0.04 -0.18,-0.01 -0.09,0.02 -0.18,0.06 -0.27,0.08l-0.28 0.1c-0.08,0.03 -0.48,0.21 -0.55,0.25l-0.26 0.13c-0.1,0.06 -0.3,0.18 -0.41,0.25 -0.02,0.01 -0.04,0.02 -0.04,0.04 0.01,0.02 0.03,0.03 0.05,0.04z"/>
   </g>
   <path class="fil1" d="M4.08 2.21c0.05,-0.05 0.09,-0.1 0.14,-0.14 0.02,0.01 0.09,0.08 0.11,0.11 -0.02,0.03 -0.05,0.06 -0.08,0.08l-0.13 0.13c-0.01,0.01 -0.03,0.02 -0.04,0.04 -0.03,0.03 -0.05,0.05 -0.08,0.08 -0.06,0.06 -0.11,0.11 -0.17,0.17 -0.03,0.03 -0.14,0.15 -0.17,0.16l-0.33 -0.33c0.01,-0.02 0.08,-0.08 0.1,-0.1 0.02,0.01 0.09,0.09 0.11,0.12l0.11 0.11 0.42 -0.43zm0.68 0.08c0.02,-0.08 -0.05,-0.12 -0.09,-0.15 -0.14,-0.15 0,-0.27 -0.17,-0.32 -0.2,-0.05 -0.18,-0.19 -0.26,-0.23 -0.03,-0.01 -0.07,0 -0.1,0.01 -0.23,0.02 -0.25,-0.16 -0.37,-0.07 -0.05,0.04 -0.1,0.07 -0.17,0.08 -0.05,0.01 -0.06,-0 -0.1,-0.01 -0.1,-0.02 -0.12,0.05 -0.15,0.09 -0.11,0.18 -0.23,0.09 -0.28,0.21 -0.03,0.07 0.01,0.12 -0.04,0.2 -0.03,0.05 -0.09,0.07 -0.11,0.13 -0.03,0.08 0.02,0.12 0.04,0.19 0.02,0.09 -0.03,0.11 -0.04,0.19 -0.01,0.09 0.04,0.14 0.08,0.17 0.15,0.12 -0,0.26 0.17,0.32 0.08,0.03 0.11,0.03 0.16,0.08 0.03,0.04 0.06,0.12 0.11,0.14 0.06,0.02 0.15,-0.02 0.23,0 0.06,0.02 0.1,0.07 0.16,0.09 0.06,0.02 0.13,-0.04 0.17,-0.06 0.07,-0.05 0.12,-0.03 0.21,-0.02 0.04,0.01 0.07,-0.01 0.1,-0.03 0.03,-0.03 0.03,-0.04 0.05,-0.07 0.1,-0.17 0.24,-0.09 0.28,-0.21 0.03,-0.09 -0.02,-0.16 0.11,-0.26 0.12,-0.1 0.03,-0.15 0.01,-0.26 -0.01,-0.1 0.03,-0.12 0.04,-0.2z"/>
   <path class="fil2" d="M3.66 2.64l-0.11 -0.11c-0.02,-0.02 -0.09,-0.1 -0.11,-0.12 -0.02,0.01 -0.09,0.08 -0.1,0.1l0.33 0.33c0.02,-0.01 0.14,-0.14 0.17,-0.16 0.06,-0.06 0.11,-0.11 0.17,-0.17 0.03,-0.03 0.05,-0.05 0.08,-0.08 0.01,-0.01 0.03,-0.02 0.04,-0.04l0.13 -0.13c0.03,-0.03 0.06,-0.06 0.08,-0.08 -0.02,-0.02 -0.08,-0.1 -0.11,-0.11 -0.05,0.05 -0.09,0.1 -0.14,0.14l-0.42 0.43z"/>
  </g>
 </g>
</svg>
