<?xml version="1.0" encoding="UTF-8"?>
<!DOCTYPE svg PUBLIC "-//W3C//DTD SVG 1.1//EN" "http://www.w3.org/Graphics/SVG/1.1/DTD/svg11.dtd">
<!-- Creator: CorelDRAW (OEM Version) -->
<svg xmlns="http://www.w3.org/2000/svg" xml:space="preserve" width="19.8047mm" height="12.1884mm" version="1.1" style="shape-rendering:geometricPrecision; text-rendering:geometricPrecision; image-rendering:optimizeQuality; fill-rule:evenodd; clip-rule:evenodd"
viewBox="0 0 308.89 190.1"
 xmlns:xlink="http://www.w3.org/1999/xlink"
 xmlns:xodm="http://www.corel.com/coreldraw/odm/2003">
 <defs>
  <style type="text/css">
   <![CDATA[
    .fil0 {fill:#2B2A29}
    .fil1 {fill:#5FB643}
    .fil2 {fill:#FEFEFE}
   ]]>
  </style>
 </defs>
 <g id="Layer_x0020_1">
  <metadata id="CorelCorpID_0Corel-Layer"/>
  <g id="_2825794462960">
   <path class="fil0" d="M111.89 83.24c-0.45,4.2 -5.18,16 -7.6,19.42 -1.11,1.57 -1.91,2.93 -2.87,4.32 -2.86,4.15 -6.92,10.51 -11.27,12.52 -0.92,-0.68 -0.3,-0.03 -1.46,-0.33 -2.56,-0.65 -2.07,-2.95 -1.69,-4.4 0.56,-2.11 1.67,-4.17 2.66,-6.1 0.6,-1.16 0.99,-1.98 1.45,-3.01 0.46,-1.03 1.16,-2.03 1.62,-2.95 0.47,-0.93 0.98,-1.96 1.48,-2.99 1.11,-2.27 2.06,-3.27 3.38,-5.81l3.38 -5.82c0.65,-1 1.15,-1.79 1.87,-2.85 1.03,-1.54 2.32,-4.01 4.21,-5.43 2.53,-1.89 5.17,0.45 4.85,3.41zm10.44 22.53c-2.81,1.69 -6.01,-0.66 -3.7,-4.78l7 -15.56 1.11 -4.22c0.06,-0.94 0.06,-1.44 -0.22,-2.39 -0.34,-1.12 -0.86,-1.77 -0.65,-2.72 -1.1,-1.08 -0.82,-0.19 -2.26,-1.95 -1.42,-1.73 -5.12,-3.94 -7.11,-4.8 -3.48,-1.5 -6.83,-2.78 -11.03,-2.47 -4.97,0.37 -8.42,2.02 -11.58,5.52 -2.72,3 -5.16,5.68 -7.46,9l-6.13 9.56c-2.42,4.26 -7.81,15.64 -9.07,20.45 -1.46,5.58 1.29,8.13 4.66,11.71 2.43,2.58 2.8,2.96 6.93,4.59 4.6,1.82 13.19,2.36 17.9,-1.66 1.12,-0.96 1.67,-2.31 2.57,-3.4 2.25,-2.72 1.38,-5.09 5.03,-2.58 2.42,1.66 5.93,1.65 9.09,1.11 5.29,-0.91 8.4,-4.22 12.1,-7.17 1.66,-1.32 3.21,-2.95 4.53,-4.48 1.33,-1.54 3.01,-3.11 4.15,-4.64 1.69,-2.29 4.17,-5.12 5.54,-7.25 2.14,-3.32 2.75,-2.16 4.61,-0.71 0.91,0.71 1.05,1.26 1.96,1.9 4.48,3.19 12.44,1.42 16.57,-1.31 1.36,-0.9 3.01,-2.66 4.14,-3.81 1.38,-1.4 2.38,-2.75 3.6,-4.02 1.14,-1.19 2.48,-2.79 3.52,-4.06 1.06,-1.29 2.01,-3.22 3.6,-4 1.04,0.37 2.89,1.84 3.48,3.34 2.77,0.06 11.32,8.01 26.57,-3.12 2.7,-1.97 3.58,-3.19 5.49,-5.38 0.51,-0.59 -0.17,-0.26 1.03,-0.75 1.55,-5.09 5.94,0.78 10.4,0.13 5.48,-0.79 6.7,-4.72 8.5,-5.61 0.71,1.57 -0.98,4.83 -1.44,7.64 0.08,0.95 -0.99,4.23 -1.36,5.72 -0.64,2.57 -2.37,2.23 -5.31,3.18 -4.77,1.53 -9.68,3.07 -14.53,4.7l-14.37 5.11c-8.1,3.21 -22.5,8.07 -29.87,11.96l-14.4 6.55c-6.23,2.53 -14.61,6.91 -21.11,9.92l-13.92 6.62c-2.21,1.22 -4.32,2.29 -6.53,3.44 -11.15,5.78 -26.89,15.26 -37.83,21.68 -9.46,5.56 -25.25,16.37 -34.72,22.86 -1.92,1.31 -9.86,6.44 -10.04,8.34 0.76,1.12 1.51,0.99 2.68,1.32 2.72,0.8 1.91,0.37 5.39,0.72 6.92,0.7 11.64,-2.93 17.76,-6.82l5.04 -3.54c0.96,-0.68 1.68,-0.98 2.73,-1.62l25.39 -15.34c3.8,-2.34 7.53,-4.74 11.49,-6.74 2.58,-1.3 7.56,-4.71 11.22,-6.76l18.16 -9.82c2.74,-1.78 15.17,-7.77 18.56,-9.56 12.31,-6.52 26.96,-12.31 40.11,-17.81 4.01,-1.68 9.79,-4.39 13.77,-5.52 2.16,-0.61 4.7,-1.74 6.71,-2.41l10.14 -3.67c1.39,-0.53 2.03,-0.54 3.19,-0.93 2.08,-0.69 5.06,-2.49 6.57,-1.43 -0.04,0.9 -0.37,1.16 -0.64,2.04 -0.49,1.61 -0.04,1.57 -0.25,2.38 -0.58,3.16 -2.22,16.62 -1.77,18.41 0.84,0.03 1.1,0.17 2.28,0.17 0.64,0.56 -0,0.66 2.67,0.24 0.91,-0.14 1.96,-0.42 2.94,-0.54 1.52,-0.19 5,-1.46 6.54,-2.24l2.05 -10.26c0.69,-3.38 1.53,-6.67 2.17,-10.37 0.93,-5.45 3.09,-5.12 8.62,-6.29 0.83,-0.18 2.07,-0.32 2.95,-0.53 12.72,-3.06 26.33,-5.11 39.25,-6.33 2.87,-0.27 9.75,0.61 10.8,-3 0.37,-1.28 0.86,-4.28 0.46,-5.67 -1.17,-4.32 -5.08,-2.76 -11.17,-2.73 -10.16,0.05 -31.29,3.39 -40.99,5.95 -1.36,-0.34 -2.38,0.35 -3.71,0.34 -0.64,-1.86 0.04,-2.82 0.54,-4.2 1.5,-4.19 2.01,-6.47 4.12,-11.67 1.05,-2.6 1.92,-4.79 3.09,-7.63 1,-2.42 2,-4.98 3.15,-7.6 2.17,-4.92 4.33,-10.12 6.73,-15.05l4.46 -9.18c0.39,-0.74 0.57,-1.28 0.92,-1.96l1.21 -2.68c0.34,-0.86 0.24,-0.16 0.4,-1.2 0.05,-2.39 0.78,-3.68 -6.91,-2.65 -2.83,0.38 -8.11,0.8 -10.07,3.11 -0.72,0.85 -4.47,9.16 -5.69,11.63l-5.75 11.85c-1.19,2.26 -2.95,5.28 -4.58,7.64 -2.21,3.2 -8.57,12.34 -12.55,13.49 -0.77,0.03 -1.37,0.27 -2.26,0.17 -1.61,-2.43 -0.79,-3.68 -0.61,-5.66 0.27,-3.01 1.86,-6.78 2.68,-9.94l0.42 -1.27c1.51,-3.38 1.44,-4.84 3.11,-8.49 0.82,-1.79 1.12,-3.08 1.85,-4.75l3.44 -8.35c0.17,-0.8 0.02,-0.77 0.17,-1.39 0.83,-4.16 -4.72,-2.38 -8.5,-1.82 -7.54,1.12 -7.11,2.86 -8.52,5.96 -0.81,1.79 -1.16,3.07 -1.73,4.59 -2.98,7.97 -6.09,17.3 -9.41,25.19l-2.87 6.86c-1.23,2.22 -3.38,6.57 -4.98,8.55 -3.13,3.87 -8.55,4.53 -9.58,2.31 -2.79,-0.79 -3.57,-3.57 -2.52,-6.71 0.28,-0.84 0.24,-1.54 0.47,-2.58 1.49,-6.75 3.7,-11.01 5.22,-16.3 0.97,-3.36 3.14,-8.75 4.11,-11.89 1.15,-3.73 6.61,-14.33 8.53,-17.68l8.54 -15.13c0.2,-0.36 0.35,-0.66 0.53,-1.06l0.4 -1.26c0.14,-0.92 0.41,-0.96 0.25,-2.06 -3.74,-1.31 -10.78,-1.11 -15.09,1.23 -2.32,1.26 -6.07,9.35 -7.57,12.05 -1.07,1.93 -2.28,4.12 -3.16,6.12 -0.55,1.26 -0.97,1.89 -1.43,3.01l-2.79 6.26c-3.64,7.44 -9.39,20.75 -12.61,28.52l-8.48 17.3c-1.72,3.72 -5.22,11.52 -10.42,12.44 -0.4,-0.17 -0.25,-0.13 -0.68,-0.33 -1.44,-0.68 -2.64,-1.28 -2.58,-3.82 0.02,-0.78 -0,-0.12 0.08,-0.81 0.39,-3.13 3.48,-11.72 3.98,-14.04l2.31 -7.32c0.13,-0.35 0.4,-0.8 0.56,-1.25l6.04 -15.33 15.66 -32.27c-0.48,-1.53 0.48,-2.09 -1.98,-2.75 -3.01,-0.8 -9.68,-0.18 -12.79,1.25 -2.12,0.97 -4.02,4.18 -4.9,5.96l-14.16 32.98c-1.63,3.03 -4.51,10.94 -5.18,12.07l-14.36 30.98c-1.22,2.36 -2.57,4.7 -3.71,6.52 -0.72,1.15 -1.43,2.23 -2.17,3.16 -1.03,1.29 -2.04,1.99 -2.96,3.05z"/>
   <path class="fil0" d="M2.65 74.95c0.73,0.59 0.27,0.44 1.1,0.86 0.3,0.16 0.92,0.38 1.27,0.53 2.04,0.9 6.24,2.91 8.19,2.77 1.97,-0.14 4.39,-2.46 5.8,-3.5l12.39 -7.36c6.66,-3.67 13.36,-7.77 20.87,-10.01 1.05,1.63 -0.9,2.77 -0.46,4.75 -0.04,1.86 -0.75,3.44 -1.28,5.35l-5.49 21.06c-0.46,1.93 -0.97,3.37 -1.36,5.37 -0.71,3.68 -2.93,11.39 -3.92,16.03 -1.78,8.37 -2.91,12.43 -4.38,21.72l-1.65 11.22c-0.35,2.4 -0.97,3.34 0.3,6.21l1.93 0.34c2.06,-0.6 14.87,-5.42 15.49,-6.21 0.34,-0.43 0.45,-6.42 0.7,-8.38 0.18,-1.42 0.37,-2.57 0.64,-3.98 0.3,-1.59 0.29,-2.92 0.54,-4.24l1.09 -5.91c0.36,-1.76 -0.11,-1.43 0.61,-4.21 0.19,-0.74 0.31,-1.45 0.44,-2.16l5.37 -26.23c1.56,-5.41 2.58,-10.33 4.24,-15.87 0.26,-0.87 0.25,-1.31 0.46,-2.15l5.5 -19.8c0.56,-1.99 0.93,-2.19 3.31,-3.15 11.64,-4.7 20.2,-6.63 30.96,-10.77 2.62,-1.01 9.25,-2.63 9.68,-4.07 0.33,-1.12 -1.17,-3.93 -1.71,-4.97 -1.9,-1.29 -0.72,-0.46 -2.33,-2.12 -2.84,-2.92 -4.1,-2.15 -9.83,-0.56 -4.94,1.36 -10.2,3.15 -15.15,4.55l-15.54 5.49c-4.34,1.79 -26.58,11.39 -30.75,13.8l-14.51 7.25c-5.64,3.09 -16.73,10 -22.68,13.95 -1.23,0.82 -1.95,1.24 -2.47,2.42 0.6,1.27 1.63,1.55 2.65,1.95z"/>
  </g>
  <path class="fil1" d="M226.86 122.68c2.55,-2.68 5.07,-5.5 7.67,-8 1.16,0.63 4.73,4.71 5.86,5.95 -1.29,1.57 -2.99,3.16 -4.48,4.69l-6.99 7.17c-0.78,0.8 -1.6,1.36 -2.38,2.16 -1.56,1.59 -2.93,3 -4.5,4.59 -3.16,3.21 -6.08,6.25 -9.24,9.47 -1.53,1.55 -7.92,8.33 -9.18,9.12l-18.14 -18.31c0.68,-0.88 4.37,-4.56 5.58,-5.34 1.05,0.73 4.96,5.06 6.17,6.39l6.18 6.17 23.44 -24.05zm37.81 4.55c0.86,-4.48 -2.92,-6.44 -4.79,-8.43 -7.88,-8.41 0.09,-15.06 -9.68,-17.58 -10.91,-2.82 -9.92,-10.6 -14.43,-12.56 -1.87,-0.81 -3.78,0.12 -5.73,0.31 -12.95,1.25 -13.67,-8.99 -20.43,-4.1 -2.82,2.04 -5.53,3.75 -9.32,4.32 -3,0.45 -3.49,-0.22 -5.82,-0.61 -5.55,-0.91 -6.81,2.77 -8.3,5.18 -6.32,10.16 -12.93,4.83 -15.41,11.58 -1.5,4.1 0.37,6.49 -2.48,11.14 -1.77,2.89 -5.21,4.13 -6.35,7.28 -1.51,4.18 1.22,6.92 2.05,10.55 1.19,5.21 -1.61,6.24 -2.3,10.34 -0.83,4.93 2.05,7.5 4.26,9.33 8.39,6.94 -0.14,14.42 9.6,17.65 4.22,1.4 6.28,1.79 8.68,4.69 1.73,2.09 3.51,6.69 5.92,7.71 3.16,1.33 8.45,-0.92 12.5,0.08 3.4,0.84 5.47,3.67 8.83,4.79 3.32,1.1 7.17,-2.04 9.23,-3.43 4.03,-2.72 6.73,-1.58 11.52,-0.99 2.28,0.28 4.09,-0.33 5.37,-1.62 1.39,-1.4 1.53,-2.25 2.59,-4.08 5.36,-9.28 13.5,-4.96 15.37,-11.65 1.39,-4.96 -1.05,-8.81 5.97,-14.58 6.55,-5.38 1.54,-8.53 0.72,-14.38 -0.75,-5.34 1.65,-6.81 2.44,-10.9z"/>
  <path class="fil2" d="M203.41 146.74l-6.18 -6.17c-1.21,-1.32 -5.12,-5.66 -6.17,-6.39 -1.21,0.79 -4.91,4.47 -5.58,5.34l18.14 18.31c1.26,-0.79 7.66,-7.57 9.18,-9.12 3.16,-3.21 6.08,-6.25 9.24,-9.47 1.57,-1.59 2.94,-3 4.5,-4.59 0.78,-0.8 1.6,-1.35 2.38,-2.16l6.99 -7.17c1.49,-1.53 3.19,-3.11 4.48,-4.69 -1.14,-1.24 -4.7,-5.32 -5.86,-5.95 -2.6,2.5 -5.11,5.32 -7.67,8l-23.44 24.05z"/>
 </g>
</svg>
